<?xml version="1.0" encoding="UTF-8" standalone="no"?>
<!-- Created with Inkscape (http://www.inkscape.org/) -->

<svg
   width="512"
   height="512"
   viewBox="0 0 135.46666 135.46667"
   version="1.1"
   id="svg5"
   inkscape:version="1.1 (c68e22c387, 2021-05-23)"
   sodipodi:docname="TestIcon.svg"
   xmlns:inkscape="http://www.inkscape.org/namespaces/inkscape"
   xmlns:sodipodi="http://sodipodi.sourceforge.net/DTD/sodipodi-0.dtd"
   xmlns="http://www.w3.org/2000/svg"
   xmlns:svg="http://www.w3.org/2000/svg">
  <sodipodi:namedview
     id="namedview7"
     pagecolor="#505050"
     bordercolor="#ffffff"
     borderopacity="1"
     inkscape:pageshadow="0"
     inkscape:pageopacity="0"
     inkscape:pagecheckerboard="1"
     inkscape:document-units="mm"
     showgrid="false"
     units="px"
     width="512px"
     inkscape:zoom="0.31496409"
     inkscape:cx="-411.15798"
     inkscape:cy="636.58051"
     inkscape:window-width="1368"
     inkscape:window-height="850"
     inkscape:window-x="-6"
     inkscape:window-y="-6"
     inkscape:window-maximized="1"
     inkscape:current-layer="svg5" />
  <defs
     id="defs2" />
  <path
     id="path90"
     style="stroke-width:8.99999;paint-order:stroke markers fill"
     d="M 67.733332,0 A 67.73333,67.73333 0 0 0 0,67.733333 67.73333,67.73333 0 0 0 67.733332,135.46666 67.73333,67.73333 0 0 0 135.46666,67.733333 67.73333,67.73333 0 0 0 67.733332,0 Z M 43.657799,50.761243 h 14.411524 v 0.91777 h -1.21543 c -1.372529,0 -2.372982,0.40515 -3.001367,1.21543 -0.413414,0.52917 -0.620117,1.80248 -0.620117,3.81992 v 21.72891 c 0,1.70325 0.107486,2.82773 0.32246,3.37344 0.165365,0.4134 0.512631,0.76894 1.041797,1.0666 0.711065,0.39687 1.463472,0.59531 2.257227,0.59531 h 1.21543 v 0.91778 H 43.657799 v -0.91778 h 1.190625 c 1.38906,0 2.397784,-0.40514 3.026172,-1.21543 0.396872,-0.52916 0.595313,-1.80247 0.595313,-3.81992 v -21.72891 c 0,-1.70325 -0.10749,-2.82773 -0.322461,-3.37343 -0.165368,-0.41341 -0.504368,-0.76895 -1.016993,-1.0666 -0.727606,-0.39688 -1.488286,-0.59532 -2.282031,-0.59532 h -1.190625 z m 21.241081,23.23941 c 0.992185,0 1.807982,0.26458 2.447396,0.79375 0.639405,0.52182 0.959114,1.06551 0.959114,1.63142 0,0.27929 -0.09221,0.50729 -0.275952,0.68368 -0.176388,0.16904 -0.425929,0.25373 -0.749308,0.25373 -0.433629,0 -0.760857,-0.13981 -0.981337,-0.41909 -0.124947,-0.15434 -0.209638,-0.4485 -0.25373,-0.88212 -0.03674,-0.43363 -0.183547,-0.76435 -0.440801,-0.99219 -0.257234,-0.22048 -0.613511,-0.33073 -1.069184,-0.33073 -0.734955,0 -1.326767,0.27211 -1.775087,0.81597 -0.595313,0.72026 -0.892969,1.67185 -0.892969,2.85513 0,1.20532 0.29415,2.27118 0.882118,3.19722 0.595305,0.91869 1.396061,1.37821 2.402954,1.37821 0.720254,0 1.367184,-0.24656 1.940449,-0.73897 0.40422,-0.33809 0.797594,-0.95143 1.179774,-1.84072 l 0.31936,0.154 c -0.271933,1.33026 -0.804606,2.35552 -1.598353,3.07578 -0.793753,0.7129 -1.672193,1.0697 -2.63498,1.0697 -1.146535,0 -2.145721,-0.48157 -2.998266,-1.44436 -0.852549,-0.96279 -1.278993,-2.26365 -1.278993,-3.9026 0,-1.5875 0.470542,-2.87734 1.411284,-3.86953 0.948092,-0.99219 2.083589,-1.48828 3.406511,-1.48828 z m 10.076386,0 c 1.528707,0 2.7559,0.58078 3.681947,1.74201 0.7864,0.99219 1.179772,2.1312 1.179772,3.41736 0,0.904 -0.21698,1.81901 -0.650605,2.74505 -0.433621,0.92604 -1.032436,1.62408 -1.796791,2.09445 -0.757007,0.47037 -1.602375,0.7059 -2.535761,0.7059 -1.521363,0 -2.73053,-0.60634 -3.627171,-1.81901 -0.757007,-1.02159 -1.135329,-2.16811 -1.135329,-3.43958 0,-0.92604 0.228004,-1.84508 0.683678,-2.75642 0.46302,-0.9187 1.069358,-1.59468 1.81901,-2.0283 0.749655,-0.44098 1.543405,-0.66146 2.38125,-0.66146 z m 8.819099,0 h 0.47439 v 2.13889 c 1.183281,-1.42582 2.311258,-2.13889 3.384291,-2.13889 0.551212,0 1.02526,0.13981 1.422135,0.41909 0.396881,0.27194 0.713082,0.72393 0.948262,1.35599 0.161695,0.44098 0.242363,1.11696 0.242363,2.0283 v 4.31033 c 0,0.63941 0.05162,1.07338 0.154512,1.30122 0.08085,0.18374 0.209119,0.32705 0.385506,0.42995 0.18374,0.10289 0.51849,0.15399 1.003556,0.15399 v 0.39688 h -4.99401 v -0.39688 h 0.209291 c 0.470373,0 0.797602,-0.0696 0.981334,-0.20929 0.191093,-0.14699 0.323382,-0.35996 0.396875,-0.63924 0.0294,-0.11024 0.04393,-0.45601 0.04393,-1.03663 v -4.13411 c 0,-0.91869 -0.121264,-1.58366 -0.363802,-1.99523 -0.23518,-0.41892 -0.635558,-0.62838 -1.201478,-0.62838 -0.874594,0 -1.745515,0.47755 -2.612761,1.43299 v 5.32473 c 0,0.68351 0.04008,1.10645 0.120923,1.26814 0.102894,0.21314 0.24271,0.37098 0.419097,0.47388 0.18374,0.0955 0.551045,0.14314 1.102257,0.14314 v 0.39688 h -4.99401 v -0.39688 h 0.22066 c 0.514471,0 0.859723,-0.12827 1.036111,-0.38551 0.183739,-0.26458 0.275952,-0.76469 0.275952,-1.49965 v -3.74809 c 0,-1.21267 -0.02957,-1.9513 -0.08837,-2.21588 -0.05147,-0.26458 -0.136159,-0.44447 -0.253732,-0.54002 -0.110239,-0.0955 -0.260565,-0.14366 -0.451652,-0.14366 -0.205788,0 -0.45234,0.0551 -0.738973,0.16536 l -0.165365,-0.39687 z m -9.161197,0.71675 c -0.389525,0 -0.782384,0.11725 -1.179256,0.35243 -0.389528,0.22784 -0.705729,0.63223 -0.948262,1.21285 -0.24254,0.58061 -0.363802,1.32676 -0.363802,2.23811 0,1.46991 0.290135,2.7377 0.870747,3.80338 0.587967,1.06569 1.359664,1.59835 2.315104,1.59835 0.712906,0 1.301213,-0.29415 1.764234,-0.88211 0.46302,-0.58796 0.694531,-1.59818 0.694531,-3.03134 0,-1.79329 -0.385853,-3.2044 -1.157552,-4.23334 -0.521819,-0.70556 -1.187297,-1.05833 -1.995744,-1.05833 z" />
</svg>
